#N canvas 521 70 743 647 10;
#X obj 55 137 i;
#X obj 85 137 + 1;
#X obj 55 159 mod 4;
#X obj 55 181 sel 0 1 2 3;
#X obj 55 617 dac~;
#X msg 55 203 7;
#X msg 92 203 12;
#X msg 127 204 0;
#X obj 55 334 + 40;
#X obj 55 468 poly 16 1;
#X obj 55 515 pack f f f;
#X obj 55 490 - 1;
#X obj 55 356 t f b;
#X obj 87 400 + 70;
#X obj 87 422 * 0.01;
#X obj 87 444 pow 2;
#X obj 55 12 tgl 15 0 empty empty empty 17 7 0 10 -262144 -1 -1 1 1
;
#X obj 55 92 metro 1000;
#X obj 55 114 t b b;
#X obj 122 61 + 900;
#X floatatom 568 413 5 0 0 0 - - -;
#X obj 568 432 s band-limiting;
#X floatatom 122 83 5 0 0 0 - - -;
#X obj 122 41 * 10;
#X obj 122 19 random 20;
#X obj 87 378 random 20;
#X obj 55 539 clone voice~ 16;
#N canvas 4 23 1385 540 FILTERS______ 0;
#X obj 37 47 inlet~;
#X obj 37 69 s~ \$0-input;
#X obj 36 432 catch~ \$0-output;
#X obj 36 454 outlet~;
#X obj 37 276 *~;
#X obj 55 211 osc~;
#X obj 55 169 * 0.01;
#X obj 56 302 r key;
#X obj 56 324 * 1;
#X obj 56 346 sig~;
#X obj 37 104 r~ \$0-input;
#X obj 37 391 throw~ \$0-output;
#X obj 55 126 loadbang;
#X obj 55 255 +~ 0.5;
#X obj 55 233 *~ 0.25;
#X obj 170 276 *~;
#X obj 188 211 osc~;
#X obj 188 169 * 0.01;
#X obj 189 302 r key;
#X obj 189 346 sig~;
#X obj 170 104 r~ \$0-input;
#X obj 170 391 throw~ \$0-output;
#X obj 188 126 loadbang;
#X obj 188 255 +~ 0.5;
#X obj 188 233 *~ 0.25;
#X obj 296 277 *~;
#X obj 314 212 osc~;
#X obj 314 170 * 0.01;
#X obj 315 303 r key;
#X obj 315 347 sig~;
#X obj 296 105 r~ \$0-input;
#X obj 296 392 throw~ \$0-output;
#X obj 314 127 loadbang;
#X obj 314 256 +~ 0.5;
#X obj 314 234 *~ 0.25;
#X obj 429 277 *~;
#X obj 447 212 osc~;
#X obj 447 170 * 0.01;
#X obj 448 303 r key;
#X obj 448 347 sig~;
#X obj 429 105 r~ \$0-input;
#X obj 429 392 throw~ \$0-output;
#X obj 447 127 loadbang;
#X obj 447 256 +~ 0.5;
#X obj 447 234 *~ 0.25;
#X obj 561 277 *~;
#X obj 579 212 osc~;
#X obj 579 170 * 0.01;
#X obj 580 303 r key;
#X obj 580 347 sig~;
#X obj 561 105 r~ \$0-input;
#X obj 561 392 throw~ \$0-output;
#X obj 579 127 loadbang;
#X obj 579 256 +~ 0.5;
#X obj 579 234 *~ 0.25;
#X obj 694 277 *~;
#X obj 712 212 osc~;
#X obj 712 170 * 0.01;
#X obj 713 303 r key;
#X obj 713 347 sig~;
#X obj 694 105 r~ \$0-input;
#X obj 694 392 throw~ \$0-output;
#X obj 712 127 loadbang;
#X obj 712 256 +~ 0.5;
#X obj 712 234 *~ 0.25;
#X obj 820 278 *~;
#X obj 838 213 osc~;
#X obj 838 171 * 0.01;
#X obj 839 304 r key;
#X obj 839 348 sig~;
#X obj 820 106 r~ \$0-input;
#X obj 820 393 throw~ \$0-output;
#X obj 838 128 loadbang;
#X obj 838 257 +~ 0.5;
#X obj 838 235 *~ 0.25;
#X obj 953 278 *~;
#X obj 971 213 osc~;
#X obj 971 171 * 0.01;
#X obj 972 304 r key;
#X obj 972 348 sig~;
#X obj 953 106 r~ \$0-input;
#X obj 953 393 throw~ \$0-output;
#X obj 971 128 loadbang;
#X obj 971 257 +~ 0.5;
#X obj 971 235 *~ 0.25;
#X obj 189 324 * 2;
#X obj 315 325 * 3;
#X obj 448 325 * 4;
#X obj 580 325 * 6;
#X obj 713 325 * 8;
#X obj 839 326 * 12;
#X obj 972 326 * 16;
#X obj 55 147 random 10;
#X obj 188 147 random 10;
#X obj 314 148 random 10;
#X obj 447 148 random 10;
#X obj 579 148 random 10;
#X obj 712 148 random 10;
#X obj 838 149 random 10;
#X obj 55 191 + 0.3;
#X obj 188 191 + 0.3;
#X obj 314 192 + 0.3;
#X obj 447 192 + 0.3;
#X obj 579 192 + 0.3;
#X obj 712 192 + 0.3;
#X obj 838 193 + 0.3;
#X obj 971 193 + 0.3;
#X obj 971 149 random 10;
#X obj 37 369 vcf~ 3;
#X obj 170 369 vcf~ 3;
#X obj 296 370 vcf~ 3;
#X obj 429 370 vcf~ 3;
#X obj 561 370 vcf~ 3;
#X obj 694 370 vcf~ 3;
#X obj 820 371 vcf~ 3;
#X obj 953 371 vcf~ 3;
#X connect 0 0 1 0;
#X connect 2 0 3 0;
#X connect 4 0 108 0;
#X connect 5 0 14 0;
#X connect 6 0 99 0;
#X connect 7 0 8 0;
#X connect 8 0 9 0;
#X connect 9 0 108 1;
#X connect 10 0 4 0;
#X connect 12 0 92 0;
#X connect 13 0 4 1;
#X connect 14 0 13 0;
#X connect 15 0 109 0;
#X connect 16 0 24 0;
#X connect 17 0 100 0;
#X connect 18 0 85 0;
#X connect 19 0 109 1;
#X connect 20 0 15 0;
#X connect 22 0 93 0;
#X connect 23 0 15 1;
#X connect 24 0 23 0;
#X connect 25 0 110 0;
#X connect 26 0 34 0;
#X connect 27 0 101 0;
#X connect 28 0 86 0;
#X connect 29 0 110 1;
#X connect 30 0 25 0;
#X connect 32 0 94 0;
#X connect 33 0 25 1;
#X connect 34 0 33 0;
#X connect 35 0 111 0;
#X connect 36 0 44 0;
#X connect 37 0 102 0;
#X connect 38 0 87 0;
#X connect 39 0 111 1;
#X connect 40 0 35 0;
#X connect 42 0 95 0;
#X connect 43 0 35 1;
#X connect 44 0 43 0;
#X connect 45 0 112 0;
#X connect 46 0 54 0;
#X connect 47 0 103 0;
#X connect 48 0 88 0;
#X connect 49 0 112 1;
#X connect 50 0 45 0;
#X connect 52 0 96 0;
#X connect 53 0 45 1;
#X connect 54 0 53 0;
#X connect 55 0 113 0;
#X connect 56 0 64 0;
#X connect 57 0 104 0;
#X connect 58 0 89 0;
#X connect 59 0 113 1;
#X connect 60 0 55 0;
#X connect 62 0 97 0;
#X connect 63 0 55 1;
#X connect 64 0 63 0;
#X connect 65 0 114 0;
#X connect 66 0 74 0;
#X connect 67 0 105 0;
#X connect 68 0 90 0;
#X connect 69 0 114 1;
#X connect 70 0 65 0;
#X connect 72 0 98 0;
#X connect 73 0 65 1;
#X connect 74 0 73 0;
#X connect 75 0 115 0;
#X connect 76 0 84 0;
#X connect 77 0 106 0;
#X connect 78 0 91 0;
#X connect 79 0 115 1;
#X connect 80 0 75 0;
#X connect 82 0 107 0;
#X connect 83 0 75 1;
#X connect 84 0 83 0;
#X connect 85 0 19 0;
#X connect 86 0 29 0;
#X connect 87 0 39 0;
#X connect 88 0 49 0;
#X connect 89 0 59 0;
#X connect 90 0 69 0;
#X connect 91 0 79 0;
#X connect 92 0 6 0;
#X connect 93 0 17 0;
#X connect 94 0 27 0;
#X connect 95 0 37 0;
#X connect 96 0 47 0;
#X connect 97 0 57 0;
#X connect 98 0 67 0;
#X connect 99 0 5 0;
#X connect 100 0 16 0;
#X connect 101 0 26 0;
#X connect 102 0 36 0;
#X connect 103 0 46 0;
#X connect 104 0 56 0;
#X connect 105 0 66 0;
#X connect 106 0 76 0;
#X connect 107 0 77 0;
#X connect 108 0 11 0;
#X connect 109 0 21 0;
#X connect 110 0 31 0;
#X connect 111 0 41 0;
#X connect 112 0 51 0;
#X connect 113 0 61 0;
#X connect 114 0 71 0;
#X connect 115 0 81 0;
#X restore 55 560 pd FILTERS______;
#X floatatom 635 190 5 0 0 0 - - -;
#X obj 635 209 s key;
#X obj 93 289 r key;
#X obj 93 311 ftom;
#X obj 393 268 r key;
#X obj 393 290 ftom;
#X obj 344 542 clone voice~ 16;
#X obj 344 161 t b f b;
#X msg 344 268 \$5;
#X msg 382 187 set;
#X msg 363 209 adddollar \$1;
#X obj 344 140 + 1;
#X obj 344 310 +;
#X obj 393 312 + 12;
#X obj 344 468 poly 16 1;
#X obj 344 515 pack f f f;
#X obj 344 490 - 1;
#X obj 344 356 t f b;
#X obj 376 400 + 70;
#X obj 376 422 * 0.01;
#X obj 376 444 pow 2;
#X obj 376 378 random 20;
#X obj 344 15 tgl 15 0 empty empty empty 17 7 0 10 -262144 -1 -1 1
1;
#X obj 344 95 metro 1000;
#X floatatom 411 86 5 0 0 0 - - -;
#X obj 411 22 random 40;
#X obj 344 332 + 12;
#X msg 344 230 0 2 4 5 7 9 11 12 14 16 17 19 21 23 24;
#X obj 344 118 random 15;
#X obj 411 44 * 1;
#X obj 635 80 random 100;
#X obj 635 124 + 99.5;
#X obj 635 168 line;
#X obj 635 36 tgl 15 0 empty empty empty 17 7 0 10 -262144 -1 -1 1
1;
#X msg 635 146 \$1 100;
#X obj 635 58 metro 100;
#X obj 635 102 * 0.015;
#X floatatom 155 42 5 0 0 0 - - -;
#X obj 411 64 + 850;
#X obj 344 564 *~ 0.6;
#X obj 344 586 rev3~ 100 95 3000 20;
#X connect 0 0 1 0;
#X connect 0 0 2 0;
#X connect 1 0 0 1;
#X connect 2 0 3 0;
#X connect 3 0 5 0;
#X connect 3 1 6 0;
#X connect 3 2 6 0;
#X connect 3 3 7 0;
#X connect 5 0 8 0;
#X connect 6 0 8 0;
#X connect 7 0 8 0;
#X connect 8 0 12 0;
#X connect 9 0 11 0;
#X connect 9 1 10 1;
#X connect 9 2 10 2;
#X connect 10 0 26 0;
#X connect 11 0 10 0;
#X connect 12 0 9 0;
#X connect 12 1 25 0;
#X connect 13 0 14 0;
#X connect 14 0 15 0;
#X connect 15 0 9 1;
#X connect 16 0 17 0;
#X connect 17 0 18 0;
#X connect 18 0 0 0;
#X connect 18 1 24 0;
#X connect 19 0 17 1;
#X connect 19 0 22 0;
#X connect 20 0 21 0;
#X connect 23 0 19 0;
#X connect 24 0 23 0;
#X connect 25 0 13 0;
#X connect 26 0 27 0;
#X connect 27 0 4 1;
#X connect 27 0 4 0;
#X connect 28 0 29 0;
#X connect 30 0 31 0;
#X connect 31 0 8 1;
#X connect 32 0 33 0;
#X connect 33 0 41 0;
#X connect 34 0 67 0;
#X connect 35 0 55 0;
#X connect 35 1 38 0;
#X connect 35 2 37 0;
#X connect 36 0 40 0;
#X connect 37 0 36 0;
#X connect 38 0 36 0;
#X connect 39 0 35 0;
#X connect 40 0 54 0;
#X connect 41 0 40 1;
#X connect 42 0 44 0;
#X connect 42 1 43 1;
#X connect 42 2 43 2;
#X connect 43 0 34 0;
#X connect 44 0 43 0;
#X connect 45 0 42 0;
#X connect 45 1 49 0;
#X connect 46 0 47 0;
#X connect 47 0 48 0;
#X connect 48 0 42 1;
#X connect 49 0 46 0;
#X connect 50 0 51 0;
#X connect 51 0 56 0;
#X connect 51 0 53 0;
#X connect 53 0 57 0;
#X connect 54 0 45 0;
#X connect 55 0 36 0;
#X connect 56 0 39 0;
#X connect 57 0 66 0;
#X connect 58 0 64 0;
#X connect 59 0 62 0;
#X connect 60 0 28 0;
#X connect 61 0 63 0;
#X connect 62 0 60 0;
#X connect 63 0 58 0;
#X connect 64 0 59 0;
#X connect 65 0 19 1;
#X connect 66 0 51 1;
#X connect 66 0 52 0;
#X connect 67 0 68 0;
#X connect 68 0 4 0;
#X connect 68 1 4 1;
