#N canvas 37 276 1295 494 12;
#X obj 39 153 noise~;
#X obj 151 226 osc~ 0.22;
#X obj 151 250 abs~;
#X obj 151 274 *~;
#X obj 39 291 *~;
#X obj 39 315 throw~ \$0-out;
#X obj 38 360 catch~ \$0-out;
#X obj 62 238 sig~;
#X obj 62 211 * 1;
#X floatatom 162 145 5 0 0 0 - - -;
#X obj 162 168 s \$0-freq;
#X obj 62 185 r \$0-freq;
#X obj 275 162 noise~;
#X obj 387 259 abs~;
#X obj 387 283 *~;
#X obj 275 300 *~;
#X obj 275 324 throw~ \$0-out;
#X obj 298 247 sig~;
#X obj 298 194 r \$0-freq;
#X obj 298 220 * 2;
#X obj 387 235 osc~ 0.2;
#X obj 470 147 noise~;
#X obj 582 244 abs~;
#X obj 582 268 *~;
#X obj 470 285 *~;
#X obj 470 309 throw~ \$0-out;
#X obj 493 232 sig~;
#X obj 493 179 r \$0-freq;
#X obj 582 220 osc~ 0.19;
#X obj 680 148 noise~;
#X obj 792 245 abs~;
#X obj 792 269 *~;
#X obj 680 286 *~;
#X obj 680 310 throw~ \$0-out;
#X obj 703 233 sig~;
#X obj 703 180 r \$0-freq;
#X obj 792 221 osc~ 0.14;
#X obj 493 205 * 3;
#X obj 703 206 * 4;
#X obj 38 384 *~ 0.3;
#X obj 38 448 dac~;
#X obj 897 145 noise~;
#X obj 1009 242 abs~;
#X obj 1009 266 *~;
#X obj 897 283 *~;
#X obj 897 307 throw~ \$0-out;
#X obj 920 230 sig~;
#X obj 920 177 r \$0-freq;
#X obj 920 203 * 5;
#X obj 1098 134 noise~;
#X obj 1210 231 abs~;
#X obj 1210 255 *~;
#X obj 1098 272 *~;
#X obj 1098 296 throw~ \$0-out;
#X obj 1121 219 sig~;
#X obj 1121 166 r \$0-freq;
#X obj 1121 191 * 6;
#X obj 1009 218 osc~ 0.11;
#X obj 1210 207 osc~ 0.16;
#X obj 39 267 vcf~ 30;
#X obj 274 276 vcf~ 30;
#X obj 470 261 vcf~ 30;
#X obj 680 262 vcf~ 30;
#X obj 897 259 vcf~ 30;
#X obj 1098 248 vcf~ 30;
#X obj 162 74 + 200;
#X obj 162 50 random 140;
#X obj 162 6 tgl 15 0 empty empty empty 17 7 0 10 -262144 -1 -1 1 1
;
#X obj 162 26 metro 4000;
#X obj 162 122 line 200 10;
#X obj 162 98 pack f 4000;
#X obj 62 419 rev3~ 100 95 3000 20;
#N canvas 0 23 520 496 knocking 0;
#X obj 82 55 abs~;
#X obj 82 79 *~;
#X obj 126 76 env~;
#X obj 126 100 dbtorms;
#X floatatom 126 124 5 0 0 0 - - -;
#X obj 126 171 i;
#X obj 126 195 change;
#X floatatom 126 219 5 0 0 0 - - -;
#X obj 61 263 metro;
#X obj 117 242 i;
#X obj 241 146 tgl 15 0 empty empty empty 17 7 0 10 -262144 -1 -1 1
1;
#X obj 61 287 dirac~;
#X obj 61 382 throw~ \$0-out;
#X obj 61 335 *~;
#X obj 126 147 * 200;
#X obj 61 311 bp~ 3232 10;
#X obj 82 31 osc~ 0.05;
#X obj 293 58 abs~;
#X obj 293 82 *~;
#X obj 337 79 env~;
#X obj 337 103 dbtorms;
#X floatatom 337 127 5 0 0 0 - - -;
#X obj 337 174 i;
#X obj 337 198 change;
#X floatatom 337 222 5 0 0 0 - - -;
#X obj 272 266 metro;
#X obj 328 245 i;
#X obj 272 290 dirac~;
#X obj 272 385 throw~ \$0-out;
#X obj 272 338 *~;
#X obj 337 150 * 200;
#X obj 293 33 osc~ 0.02;
#X obj 272 314 bp~ 6547 10;
#X obj 61 358 *~ 3;
#X obj 272 361 *~ 3;
#X connect 0 0 1 0;
#X connect 0 0 1 1;
#X connect 0 0 2 0;
#X connect 1 0 13 1;
#X connect 2 0 3 0;
#X connect 3 0 4 0;
#X connect 4 0 14 0;
#X connect 5 0 6 0;
#X connect 6 0 7 0;
#X connect 7 0 9 1;
#X connect 8 0 9 0;
#X connect 8 0 11 0;
#X connect 9 0 8 1;
#X connect 10 0 8 0;
#X connect 10 0 25 0;
#X connect 11 0 15 0;
#X connect 13 0 33 0;
#X connect 14 0 5 0;
#X connect 15 0 13 0;
#X connect 16 0 0 0;
#X connect 17 0 18 0;
#X connect 17 0 18 1;
#X connect 17 0 19 0;
#X connect 18 0 29 1;
#X connect 19 0 20 0;
#X connect 20 0 21 0;
#X connect 21 0 30 0;
#X connect 22 0 23 0;
#X connect 23 0 24 0;
#X connect 24 0 26 1;
#X connect 25 0 26 0;
#X connect 25 0 27 0;
#X connect 26 0 25 1;
#X connect 27 0 32 0;
#X connect 29 0 34 0;
#X connect 30 0 22 0;
#X connect 31 0 17 0;
#X connect 32 0 29 0;
#X connect 33 0 12 0;
#X connect 34 0 28 0;
#X restore 429 402 pd knocking;
#X connect 0 0 59 0;
#X connect 1 0 2 0;
#X connect 2 0 3 0;
#X connect 2 0 3 1;
#X connect 3 0 4 1;
#X connect 4 0 5 0;
#X connect 6 0 39 0;
#X connect 7 0 59 1;
#X connect 8 0 7 0;
#X connect 9 0 10 0;
#X connect 11 0 8 0;
#X connect 12 0 60 0;
#X connect 13 0 14 0;
#X connect 13 0 14 1;
#X connect 14 0 15 1;
#X connect 15 0 16 0;
#X connect 17 0 60 1;
#X connect 18 0 19 0;
#X connect 19 0 17 0;
#X connect 20 0 13 0;
#X connect 21 0 61 0;
#X connect 22 0 23 0;
#X connect 22 0 23 1;
#X connect 23 0 24 1;
#X connect 24 0 25 0;
#X connect 26 0 61 1;
#X connect 27 0 37 0;
#X connect 28 0 22 0;
#X connect 29 0 62 0;
#X connect 30 0 31 0;
#X connect 30 0 31 1;
#X connect 31 0 32 1;
#X connect 32 0 33 0;
#X connect 34 0 62 1;
#X connect 35 0 38 0;
#X connect 36 0 30 0;
#X connect 37 0 26 0;
#X connect 38 0 34 0;
#X connect 39 0 40 0;
#X connect 39 0 40 1;
#X connect 39 0 71 0;
#X connect 39 0 71 1;
#X connect 41 0 63 0;
#X connect 42 0 43 0;
#X connect 42 0 43 1;
#X connect 43 0 44 1;
#X connect 44 0 45 0;
#X connect 46 0 63 1;
#X connect 47 0 48 0;
#X connect 48 0 46 0;
#X connect 49 0 64 0;
#X connect 50 0 51 0;
#X connect 50 0 51 1;
#X connect 51 0 52 1;
#X connect 52 0 53 0;
#X connect 54 0 64 1;
#X connect 55 0 56 0;
#X connect 56 0 54 0;
#X connect 57 0 42 0;
#X connect 58 0 50 0;
#X connect 59 0 4 0;
#X connect 60 0 15 0;
#X connect 61 0 24 0;
#X connect 62 0 32 0;
#X connect 63 0 44 0;
#X connect 64 0 52 0;
#X connect 65 0 70 0;
#X connect 66 0 65 0;
#X connect 67 0 68 0;
#X connect 68 0 66 0;
#X connect 69 0 9 0;
#X connect 70 0 69 0;
#X connect 71 0 40 0;
#X connect 71 1 40 1;
