#N canvas 257 195 470 660 10;
#X obj 70 198 phasor~;
#X obj 70 385 *~;
#X obj 88 275 t b b;
#X obj 88 297 del 300;
#X obj 88 341 vline~;
#X obj 88 363 *~;
#X obj 89 559 vline~;
#X obj 199 486 * 10;
#X obj 47 9 inlet;
#X obj 70 132 mtof;
#X obj 70 154 t f f;
#X obj 70 635 outlet~;
#X obj 181 508 f;
#X obj 102 176 s \$0-freq;
#X obj 199 396 r \$0-freq;
#X obj 89 502 f;
#X obj 107 480 r \$0-freq;
#X msg 89 522 \$1 3000;
#X obj 47 108 s \$0-trig;
#X obj 88 252 r \$0-trig;
#X obj 89 412 r \$0-trig;
#X obj 47 59 unpack f f;
#X obj 153 298 f;
#X obj 89 455 del 400;
#X obj 281 508 f;
#X obj 299 396 r \$0-freq;
#X obj 299 486 * 4;
#X obj 89 433 t b b b;
#X msg 281 528 \$1;
#X obj 224 441 * 0.01;
#X obj 47 81 t b f b;
#X obj 317 441 * 0.01;
#X obj 70 585 vcf~ 6;
#X obj 317 419 random 2;
#X obj 317 463 + 2.5;
#X obj 224 463 + 7;
#X obj 224 419 random 35;
#X obj 70 220 lop~ 10000;
#X obj 138 198 r band-limiting;
#X msg 88 319 0 5000;
#X msg 181 528 \$1 800;
#X msg 153 318 \$1 300;
#X connect 0 0 37 0;
#X connect 1 0 32 0;
#X connect 2 0 3 0;
#X connect 2 1 22 0;
#X connect 3 0 39 0;
#X connect 4 0 5 0;
#X connect 4 0 5 1;
#X connect 5 0 1 1;
#X connect 6 0 32 1;
#X connect 7 0 12 1;
#X connect 8 0 21 0;
#X connect 9 0 10 0;
#X connect 10 0 0 0;
#X connect 10 1 13 0;
#X connect 12 0 40 0;
#X connect 14 0 7 0;
#X connect 15 0 17 0;
#X connect 16 0 15 1;
#X connect 17 0 6 0;
#X connect 19 0 2 0;
#X connect 20 0 27 0;
#X connect 21 0 30 0;
#X connect 21 1 22 1;
#X connect 22 0 41 0;
#X connect 23 0 15 0;
#X connect 24 0 28 0;
#X connect 25 0 26 0;
#X connect 26 0 24 1;
#X connect 27 0 23 0;
#X connect 27 1 12 0;
#X connect 27 2 24 0;
#X connect 28 0 6 0;
#X connect 29 0 35 0;
#X connect 30 0 18 0;
#X connect 30 1 9 0;
#X connect 30 2 33 0;
#X connect 30 2 36 0;
#X connect 31 0 34 0;
#X connect 32 0 11 0;
#X connect 33 0 31 0;
#X connect 34 0 26 1;
#X connect 35 0 7 1;
#X connect 36 0 29 0;
#X connect 37 0 1 0;
#X connect 38 0 37 1;
#X connect 39 0 4 0;
#X connect 40 0 6 0;
#X connect 41 0 4 0;
